<mxfile host="app.diagrams.net" agent="Mozilla/5.0 (Windows NT 10.0; Win64; x64) AppleWebKit/537.36 (KHTML, like Gecko) Chrome/130.0.0.0 Safari/537.36" version="24.8.6">
  <diagram name="Page-1" id="FBL7N7VHoypxx4iyC-VS">
    <mxGraphModel grid="1" page="1" gridSize="10" guides="1" tooltips="1" connect="1" arrows="1" fold="1" pageScale="1" pageWidth="827" pageHeight="1169" math="0" shadow="0">
      <root>
        <mxCell id="0" />
        <mxCell id="1" parent="0" />
        <mxCell id="DzVcT3A9Lj_Ig4xI-9av-6" style="edgeStyle=orthogonalEdgeStyle;rounded=0;orthogonalLoop=1;jettySize=auto;html=1;exitX=0.5;exitY=0;exitDx=0;exitDy=0;entryX=0.5;entryY=1;entryDx=0;entryDy=0;" edge="1" parent="1" source="DzVcT3A9Lj_Ig4xI-9av-2" target="DzVcT3A9Lj_Ig4xI-9av-3">
          <mxGeometry relative="1" as="geometry" />
        </mxCell>
        <mxCell id="DzVcT3A9Lj_Ig4xI-9av-2" value="Unit Testing" style="shape=trapezoid;perimeter=trapezoidPerimeter;whiteSpace=wrap;html=1;fixedSize=1;size=80;" vertex="1" parent="1">
          <mxGeometry x="70" y="290" width="700" height="60" as="geometry" />
        </mxCell>
        <mxCell id="DzVcT3A9Lj_Ig4xI-9av-7" style="edgeStyle=orthogonalEdgeStyle;rounded=0;orthogonalLoop=1;jettySize=auto;html=1;exitX=0.5;exitY=0;exitDx=0;exitDy=0;" edge="1" parent="1" source="DzVcT3A9Lj_Ig4xI-9av-3" target="DzVcT3A9Lj_Ig4xI-9av-4">
          <mxGeometry relative="1" as="geometry" />
        </mxCell>
        <mxCell id="DzVcT3A9Lj_Ig4xI-9av-3" value="Integration Testing" style="shape=trapezoid;perimeter=trapezoidPerimeter;whiteSpace=wrap;html=1;fixedSize=1;size=80;" vertex="1" parent="1">
          <mxGeometry x="160" y="210" width="520" height="60" as="geometry" />
        </mxCell>
        <mxCell id="DzVcT3A9Lj_Ig4xI-9av-8" style="edgeStyle=orthogonalEdgeStyle;rounded=0;orthogonalLoop=1;jettySize=auto;html=1;exitX=0.5;exitY=0;exitDx=0;exitDy=0;" edge="1" parent="1" source="DzVcT3A9Lj_Ig4xI-9av-4" target="DzVcT3A9Lj_Ig4xI-9av-5">
          <mxGeometry relative="1" as="geometry" />
        </mxCell>
        <mxCell id="DzVcT3A9Lj_Ig4xI-9av-4" value="System Testing" style="shape=trapezoid;perimeter=trapezoidPerimeter;whiteSpace=wrap;html=1;fixedSize=1;size=80;" vertex="1" parent="1">
          <mxGeometry x="250" y="130" width="340" height="60" as="geometry" />
        </mxCell>
        <mxCell id="DzVcT3A9Lj_Ig4xI-9av-5" value="Acceptance Testing" style="shape=trapezoid;perimeter=trapezoidPerimeter;whiteSpace=wrap;html=1;fixedSize=1;size=100;verticalAlign=bottom;" vertex="1" parent="1">
          <mxGeometry x="340" y="50" width="160" height="60" as="geometry" />
        </mxCell>
      </root>
    </mxGraphModel>
  </diagram>
</mxfile>
